<svg width="540" height="540" viewBox="0 0 540 540" fill="none" xmlns="http://www.w3.org/2000/svg">
<mask id="path-1-outside-1_14_10267" maskUnits="userSpaceOnUse" x="16.3633" y="45.4818" width="507" height="450" fill="black">
<rect fill="white" x="16.3633" y="45.4818" width="507" height="450"/>
<path d="M231.945 205.062C231.432 183.229 231.542 158.73 230.075 134.304C228.657 110.502 225.637 86.7983 223.302 63.0575C223.119 61.187 222.52 59.3655 222.41 57.4951C222.202 53.7909 224.683 50.2702 227.715 49.6834C231.786 48.8887 235.038 50.4413 236.432 54.39C240.784 66.676 245.111 78.9743 249.182 91.3704C254.06 106.211 258.95 121.053 263.302 136.04C268.901 155.331 274.158 174.72 279.194 194.17C284.72 215.564 289.818 237.055 295.111 258.51C297.899 269.793 300.613 281.101 303.608 292.336C303.913 293.498 305.747 294.793 307.067 295.05C315.71 296.762 324.378 298.351 333.082 299.683C340.502 300.82 347.996 301.566 355.454 302.483C356.383 302.593 357.336 302.593 358.265 302.691C360.539 302.935 361.627 302.031 361.273 299.671C360.906 297.238 360.344 294.818 360.197 292.373C359.109 274.06 357.275 255.747 357.287 237.434C357.287 219.011 358.388 200.502 360.405 182.189C363.167 157.043 368.669 132.397 378.168 108.803C383.314 96.0037 389.476 83.7298 398.155 72.9107C406.517 62.4951 416.847 55.8814 430.808 58.2286C435.454 59.011 440.197 60.7102 444.256 63.0819C458.424 71.3582 469.94 82.7274 480.356 95.3191C488.094 104.671 495.05 114.549 500.099 125.588C507.348 141.407 513.473 157.568 516.297 174.928C519.182 192.642 519.207 210.319 516.982 227.996C515.05 243.339 511.065 258.241 503.987 272.067C497.397 284.94 489.084 296.7 476.994 305.001C465.881 312.642 453.143 316.566 439.916 318.73C421.273 321.774 402.471 322.189 383.644 321.297C380.71 321.163 379.769 321.749 380.258 324.659C381.578 332.654 382.568 340.71 384.084 348.669C388.938 374.17 393.534 399.732 399.109 425.075C402.458 440.307 407.52 455.16 411.603 470.246C412.886 474.977 413.754 479.855 414.317 484.732C414.732 488.29 412.361 490.857 409.231 491.211C406.211 491.554 403.962 489.696 402.935 486.322C398.877 472.972 394.598 459.683 390.71 446.273C386.884 433.07 383.009 419.855 379.928 406.48C375.845 388.742 372.348 370.857 368.913 352.984C367.006 343.07 365.625 333.045 364.207 323.033C363.877 320.686 362.972 319.891 360.71 319.622C348.106 318.082 335.515 316.456 322.935 314.745C319.329 314.256 315.784 313.363 312.202 312.703C309.806 312.263 308.326 312.458 309.121 315.735C314.696 338.681 320.16 361.664 325.6 384.647C330.527 405.454 335.368 426.273 340.282 447.079C343.143 459.194 346.101 471.297 349.011 483.4C349.121 483.852 349.268 484.304 349.353 484.769C349.83 487.177 350.209 489.806 347.189 490.625C344.219 491.432 343.375 488.864 342.764 486.713C338.608 472.141 334.524 457.556 330.441 442.96C326.48 428.828 322.52 414.696 318.571 400.564C313.265 381.566 307.972 362.556 302.654 343.546C299.671 332.911 296.566 322.312 293.705 311.652C293.082 309.329 291.811 308.375 289.708 307.862C276.334 304.647 262.947 301.505 249.622 298.106C246.322 297.263 245.881 298.51 245.564 301.285C243.656 317.862 242.19 334.512 239.402 350.955C236.065 370.649 230.282 389.745 222.788 408.326C214.977 427.691 203.669 444.61 188.669 459.109C176.762 470.625 163.302 479.634 147.458 484.757C130.099 490.38 112.996 490.564 95.7837 483.351C79.8301 476.664 67.0673 466.297 56.1259 453.167C37.9597 431.37 27.7396 406.126 22.8619 378.436C19.7934 361.016 19.5978 343.522 22.0184 326.089C24.2189 310.295 29.2311 295.246 40.1357 283.253C45.3191 277.556 51.9206 272.715 58.7054 268.974C77.6296 258.534 98.2653 255.49 119.732 256.444C143.119 257.483 165.845 262.238 188.473 267.678C200.918 270.661 213.351 273.705 225.784 276.749C228.106 277.312 229.317 276.786 229.402 274.097C230.16 251.994 231.004 229.891 231.921 205.123L231.945 205.062ZM32.5685 353.082C33.7299 361.358 34.9768 372.788 36.9817 384.097C40.5147 404.109 48.2164 422.458 59.879 439.194C69.3044 452.715 80.6125 463.987 95.6859 471.077C104.647 475.295 114.133 478.021 124.023 477.116C141.053 475.539 156.089 468.95 169.304 457.862C182.214 447.043 192.312 434.121 200.075 419.304C206.639 406.774 211.297 393.449 214.586 379.769C218.4 363.925 221.603 347.886 224.207 331.798C226.138 319.867 226.578 307.715 227.911 295.674C228.241 292.691 226.994 291.774 224.488 291.089C211.101 287.507 197.837 283.485 184.378 280.233C167.617 276.175 150.82 272.189 133.852 269.145C113.681 265.539 93.6443 266.407 73.9988 273.326C55.2457 279.928 43.4487 292.63 37.7641 311.493C33.9866 324.035 33.6076 336.945 32.5929 353.07L32.5685 353.082ZM371.517 228.412C372.104 241.211 372.397 254.035 373.388 266.798C374.292 278.388 375.979 289.903 377.263 301.468C377.495 303.546 378.314 304.671 380.539 304.769C385.111 304.965 389.696 305.539 394.268 305.502C410.6 305.392 426.921 305.6 443.143 302.874C461.15 299.842 475.686 291.7 486.505 276.688C497.789 261.016 502.63 243.204 504.989 224.512C506.59 211.774 506.493 198.999 505.258 186.163C503.057 163.424 495.845 142.3 484.732 122.617C479.366 113.106 472.483 104.353 465.527 95.8814C457.617 86.2359 448.363 77.8496 437.495 71.4682C427.177 65.4046 417.006 66.8594 408.657 75.2457C402.128 81.7983 397.935 89.8301 394.133 98.0085C384.647 118.412 379.622 140.16 376.358 162.287C373.131 184.182 371.835 206.248 371.542 228.412H371.517ZM245.918 139.781L244.818 140.221C245.429 147.006 246.358 153.779 246.603 160.576C247.287 180.319 248.021 200.087 248.119 219.842C248.216 239.366 247.569 258.889 247.226 278.412C247.19 280.674 247.74 281.945 250.368 282.52C261.615 284.965 272.788 287.715 283.987 290.343C286.933 291.04 287.703 290.233 286.859 287.251C282.104 270.527 277.177 253.852 272.568 237.079C264.598 208.082 256.835 179.035 248.962 150.013C248.033 146.578 246.945 143.192 245.93 139.793L245.918 139.781Z"/>
</mask>
<path d="M231.945 205.062C231.432 183.229 231.542 158.73 230.075 134.304C228.657 110.502 225.637 86.7983 223.302 63.0575C223.119 61.187 222.52 59.3655 222.41 57.4951C222.202 53.7909 224.683 50.2702 227.715 49.6834C231.786 48.8887 235.038 50.4413 236.432 54.39C240.784 66.676 245.111 78.9743 249.182 91.3704C254.06 106.211 258.95 121.053 263.302 136.04C268.901 155.331 274.158 174.72 279.194 194.17C284.72 215.564 289.818 237.055 295.111 258.51C297.899 269.793 300.613 281.101 303.608 292.336C303.913 293.498 305.747 294.793 307.067 295.05C315.71 296.762 324.378 298.351 333.082 299.683C340.502 300.82 347.996 301.566 355.454 302.483C356.383 302.593 357.336 302.593 358.265 302.691C360.539 302.935 361.627 302.031 361.273 299.671C360.906 297.238 360.344 294.818 360.197 292.373C359.109 274.06 357.275 255.747 357.287 237.434C357.287 219.011 358.388 200.502 360.405 182.189C363.167 157.043 368.669 132.397 378.168 108.803C383.314 96.0037 389.476 83.7298 398.155 72.9107C406.517 62.4951 416.847 55.8814 430.808 58.2286C435.454 59.011 440.197 60.7102 444.256 63.0819C458.424 71.3582 469.94 82.7274 480.356 95.3191C488.094 104.671 495.05 114.549 500.099 125.588C507.348 141.407 513.473 157.568 516.297 174.928C519.182 192.642 519.207 210.319 516.982 227.996C515.05 243.339 511.065 258.241 503.987 272.067C497.397 284.94 489.084 296.7 476.994 305.001C465.881 312.642 453.143 316.566 439.916 318.73C421.273 321.774 402.471 322.189 383.644 321.297C380.71 321.163 379.769 321.749 380.258 324.659C381.578 332.654 382.568 340.71 384.084 348.669C388.938 374.17 393.534 399.732 399.109 425.075C402.458 440.307 407.52 455.16 411.603 470.246C412.886 474.977 413.754 479.855 414.317 484.732C414.732 488.29 412.361 490.857 409.231 491.211C406.211 491.554 403.962 489.696 402.935 486.322C398.877 472.972 394.598 459.683 390.71 446.273C386.884 433.07 383.009 419.855 379.928 406.48C375.845 388.742 372.348 370.857 368.913 352.984C367.006 343.07 365.625 333.045 364.207 323.033C363.877 320.686 362.972 319.891 360.71 319.622C348.106 318.082 335.515 316.456 322.935 314.745C319.329 314.256 315.784 313.363 312.202 312.703C309.806 312.263 308.326 312.458 309.121 315.735C314.696 338.681 320.16 361.664 325.6 384.647C330.527 405.454 335.368 426.273 340.282 447.079C343.143 459.194 346.101 471.297 349.011 483.4C349.121 483.852 349.268 484.304 349.353 484.769C349.83 487.177 350.209 489.806 347.189 490.625C344.219 491.432 343.375 488.864 342.764 486.713C338.608 472.141 334.524 457.556 330.441 442.96C326.48 428.828 322.52 414.696 318.571 400.564C313.265 381.566 307.972 362.556 302.654 343.546C299.671 332.911 296.566 322.312 293.705 311.652C293.082 309.329 291.811 308.375 289.708 307.862C276.334 304.647 262.947 301.505 249.622 298.106C246.322 297.263 245.881 298.51 245.564 301.285C243.656 317.862 242.19 334.512 239.402 350.955C236.065 370.649 230.282 389.745 222.788 408.326C214.977 427.691 203.669 444.61 188.669 459.109C176.762 470.625 163.302 479.634 147.458 484.757C130.099 490.38 112.996 490.564 95.7837 483.351C79.8301 476.664 67.0673 466.297 56.1259 453.167C37.9597 431.37 27.7396 406.126 22.8619 378.436C19.7934 361.016 19.5978 343.522 22.0184 326.089C24.2189 310.295 29.2311 295.246 40.1357 283.253C45.3191 277.556 51.9206 272.715 58.7054 268.974C77.6296 258.534 98.2653 255.49 119.732 256.444C143.119 257.483 165.845 262.238 188.473 267.678C200.918 270.661 213.351 273.705 225.784 276.749C228.106 277.312 229.317 276.786 229.402 274.097C230.16 251.994 231.004 229.891 231.921 205.123L231.945 205.062ZM32.5685 353.082C33.7299 361.358 34.9768 372.788 36.9817 384.097C40.5147 404.109 48.2164 422.458 59.879 439.194C69.3044 452.715 80.6125 463.987 95.6859 471.077C104.647 475.295 114.133 478.021 124.023 477.116C141.053 475.539 156.089 468.95 169.304 457.862C182.214 447.043 192.312 434.121 200.075 419.304C206.639 406.774 211.297 393.449 214.586 379.769C218.4 363.925 221.603 347.886 224.207 331.798C226.138 319.867 226.578 307.715 227.911 295.674C228.241 292.691 226.994 291.774 224.488 291.089C211.101 287.507 197.837 283.485 184.378 280.233C167.617 276.175 150.82 272.189 133.852 269.145C113.681 265.539 93.6443 266.407 73.9988 273.326C55.2457 279.928 43.4487 292.63 37.7641 311.493C33.9866 324.035 33.6076 336.945 32.5929 353.07L32.5685 353.082ZM371.517 228.412C372.104 241.211 372.397 254.035 373.388 266.798C374.292 278.388 375.979 289.903 377.263 301.468C377.495 303.546 378.314 304.671 380.539 304.769C385.111 304.965 389.696 305.539 394.268 305.502C410.6 305.392 426.921 305.6 443.143 302.874C461.15 299.842 475.686 291.7 486.505 276.688C497.789 261.016 502.63 243.204 504.989 224.512C506.59 211.774 506.493 198.999 505.258 186.163C503.057 163.424 495.845 142.3 484.732 122.617C479.366 113.106 472.483 104.353 465.527 95.8814C457.617 86.2359 448.363 77.8496 437.495 71.4682C427.177 65.4046 417.006 66.8594 408.657 75.2457C402.128 81.7983 397.935 89.8301 394.133 98.0085C384.647 118.412 379.622 140.16 376.358 162.287C373.131 184.182 371.835 206.248 371.542 228.412H371.517ZM245.918 139.781L244.818 140.221C245.429 147.006 246.358 153.779 246.603 160.576C247.287 180.319 248.021 200.087 248.119 219.842C248.216 239.366 247.569 258.889 247.226 278.412C247.19 280.674 247.74 281.945 250.368 282.52C261.615 284.965 272.788 287.715 283.987 290.343C286.933 291.04 287.703 290.233 286.859 287.251C282.104 270.527 277.177 253.852 272.568 237.079C264.598 208.082 256.835 179.035 248.962 150.013C248.033 146.578 246.945 143.192 245.93 139.793L245.918 139.781Z" fill="#6B4E34"/>
<path d="M231.945 205.062C231.432 183.229 231.542 158.73 230.075 134.304C228.657 110.502 225.637 86.7983 223.302 63.0575C223.119 61.187 222.52 59.3655 222.41 57.4951C222.202 53.7909 224.683 50.2702 227.715 49.6834C231.786 48.8887 235.038 50.4413 236.432 54.39C240.784 66.676 245.111 78.9743 249.182 91.3704C254.06 106.211 258.95 121.053 263.302 136.04C268.901 155.331 274.158 174.72 279.194 194.17C284.72 215.564 289.818 237.055 295.111 258.51C297.899 269.793 300.613 281.101 303.608 292.336C303.913 293.498 305.747 294.793 307.067 295.05C315.71 296.762 324.378 298.351 333.082 299.683C340.502 300.82 347.996 301.566 355.454 302.483C356.383 302.593 357.336 302.593 358.265 302.691C360.539 302.935 361.627 302.031 361.273 299.671C360.906 297.238 360.344 294.818 360.197 292.373C359.109 274.06 357.275 255.747 357.287 237.434C357.287 219.011 358.388 200.502 360.405 182.189C363.167 157.043 368.669 132.397 378.168 108.803C383.314 96.0037 389.476 83.7298 398.155 72.9107C406.517 62.4951 416.847 55.8814 430.808 58.2286C435.454 59.011 440.197 60.7102 444.256 63.0819C458.424 71.3582 469.94 82.7274 480.356 95.3191C488.094 104.671 495.05 114.549 500.099 125.588C507.348 141.407 513.473 157.568 516.297 174.928C519.182 192.642 519.207 210.319 516.982 227.996C515.05 243.339 511.065 258.241 503.987 272.067C497.397 284.94 489.084 296.7 476.994 305.001C465.881 312.642 453.143 316.566 439.916 318.73C421.273 321.774 402.471 322.189 383.644 321.297C380.71 321.163 379.769 321.749 380.258 324.659C381.578 332.654 382.568 340.71 384.084 348.669C388.938 374.17 393.534 399.732 399.109 425.075C402.458 440.307 407.52 455.16 411.603 470.246C412.886 474.977 413.754 479.855 414.317 484.732C414.732 488.29 412.361 490.857 409.231 491.211C406.211 491.554 403.962 489.696 402.935 486.322C398.877 472.972 394.598 459.683 390.71 446.273C386.884 433.07 383.009 419.855 379.928 406.48C375.845 388.742 372.348 370.857 368.913 352.984C367.006 343.07 365.625 333.045 364.207 323.033C363.877 320.686 362.972 319.891 360.71 319.622C348.106 318.082 335.515 316.456 322.935 314.745C319.329 314.256 315.784 313.363 312.202 312.703C309.806 312.263 308.326 312.458 309.121 315.735C314.696 338.681 320.16 361.664 325.6 384.647C330.527 405.454 335.368 426.273 340.282 447.079C343.143 459.194 346.101 471.297 349.011 483.4C349.121 483.852 349.268 484.304 349.353 484.769C349.83 487.177 350.209 489.806 347.189 490.625C344.219 491.432 343.375 488.864 342.764 486.713C338.608 472.141 334.524 457.556 330.441 442.96C326.48 428.828 322.52 414.696 318.571 400.564C313.265 381.566 307.972 362.556 302.654 343.546C299.671 332.911 296.566 322.312 293.705 311.652C293.082 309.329 291.811 308.375 289.708 307.862C276.334 304.647 262.947 301.505 249.622 298.106C246.322 297.263 245.881 298.51 245.564 301.285C243.656 317.862 242.19 334.512 239.402 350.955C236.065 370.649 230.282 389.745 222.788 408.326C214.977 427.691 203.669 444.61 188.669 459.109C176.762 470.625 163.302 479.634 147.458 484.757C130.099 490.38 112.996 490.564 95.7837 483.351C79.8301 476.664 67.0673 466.297 56.1259 453.167C37.9597 431.37 27.7396 406.126 22.8619 378.436C19.7934 361.016 19.5978 343.522 22.0184 326.089C24.2189 310.295 29.2311 295.246 40.1357 283.253C45.3191 277.556 51.9206 272.715 58.7054 268.974C77.6296 258.534 98.2653 255.49 119.732 256.444C143.119 257.483 165.845 262.238 188.473 267.678C200.918 270.661 213.351 273.705 225.784 276.749C228.106 277.312 229.317 276.786 229.402 274.097C230.16 251.994 231.004 229.891 231.921 205.123L231.945 205.062ZM32.5685 353.082C33.7299 361.358 34.9768 372.788 36.9817 384.097C40.5147 404.109 48.2164 422.458 59.879 439.194C69.3044 452.715 80.6125 463.987 95.6859 471.077C104.647 475.295 114.133 478.021 124.023 477.116C141.053 475.539 156.089 468.95 169.304 457.862C182.214 447.043 192.312 434.121 200.075 419.304C206.639 406.774 211.297 393.449 214.586 379.769C218.4 363.925 221.603 347.886 224.207 331.798C226.138 319.867 226.578 307.715 227.911 295.674C228.241 292.691 226.994 291.774 224.488 291.089C211.101 287.507 197.837 283.485 184.378 280.233C167.617 276.175 150.82 272.189 133.852 269.145C113.681 265.539 93.6443 266.407 73.9988 273.326C55.2457 279.928 43.4487 292.63 37.7641 311.493C33.9866 324.035 33.6076 336.945 32.5929 353.07L32.5685 353.082ZM371.517 228.412C372.104 241.211 372.397 254.035 373.388 266.798C374.292 278.388 375.979 289.903 377.263 301.468C377.495 303.546 378.314 304.671 380.539 304.769C385.111 304.965 389.696 305.539 394.268 305.502C410.6 305.392 426.921 305.6 443.143 302.874C461.15 299.842 475.686 291.7 486.505 276.688C497.789 261.016 502.63 243.204 504.989 224.512C506.59 211.774 506.493 198.999 505.258 186.163C503.057 163.424 495.845 142.3 484.732 122.617C479.366 113.106 472.483 104.353 465.527 95.8814C457.617 86.2359 448.363 77.8496 437.495 71.4682C427.177 65.4046 417.006 66.8594 408.657 75.2457C402.128 81.7983 397.935 89.8301 394.133 98.0085C384.647 118.412 379.622 140.16 376.358 162.287C373.131 184.182 371.835 206.248 371.542 228.412H371.517ZM245.918 139.781L244.818 140.221C245.429 147.006 246.358 153.779 246.603 160.576C247.287 180.319 248.021 200.087 248.119 219.842C248.216 239.366 247.569 258.889 247.226 278.412C247.19 280.674 247.74 281.945 250.368 282.52C261.615 284.965 272.788 287.715 283.987 290.343C286.933 291.04 287.703 290.233 286.859 287.251C282.104 270.527 277.177 253.852 272.568 237.079C264.598 208.082 256.835 179.035 248.962 150.013C248.033 146.578 246.945 143.192 245.93 139.793L245.918 139.781Z" stroke="#6B4E34" stroke-width="8" mask="url(#path-1-outside-1_14_10267)"/>
</svg>
